<svg width="15" height="15" viewBox="0 0 15 15" fill="none" xmlns="http://www.w3.org/2000/svg">
<path d="M4.5 11.09L7.5 8.09L10.5 11.09L11.09 10.5L8.09 7.5L11.09 4.5L10.5 3.91L7.5 6.91L4.5 3.91L3.91 4.5L6.91 7.5L3.91 10.5L4.5 11.09ZM7.5025 15C6.46583 15 5.49083 14.8033 4.5775 14.41C3.66472 14.0161 2.87056 13.4817 2.195 12.8067C1.51944 12.1317 0.984722 11.3383 0.590833 10.4267C0.196945 9.515 0 8.54028 0 7.5025C0 6.46472 0.196945 5.48972 0.590833 4.5775C0.984167 3.66472 1.51778 2.87056 2.19167 2.195C2.86556 1.51944 3.65917 0.984722 4.5725 0.590833C5.48583 0.196945 6.46083 0 7.4975 0C8.53417 0 9.50917 0.196945 10.4225 0.590833C11.3353 0.984167 12.1294 1.51806 12.805 2.1925C13.4806 2.86694 14.0153 3.66056 14.4092 4.57333C14.8031 5.48611 15 6.46083 15 7.4975C15 8.53417 14.8033 9.50917 14.41 10.4225C14.0167 11.3358 13.4822 12.13 12.8067 12.805C12.1311 13.48 11.3378 14.0147 10.4267 14.4092C9.51556 14.8036 8.54083 15.0006 7.5025 15Z" fill="#3C3C3C"/>
</svg>
