<svg width="24" height="24" viewBox="0 0 24 24" fill="none" xmlns="http://www.w3.org/2000/svg">
<circle cx="12" cy="12" r="10.5" fill="url(#paint0_linear_63431_31847)"/>
<path d="M11.9999 7.67578L12.5938 7.08181C12.4363 6.92428 12.2226 6.83578 11.9999 6.83578C11.7771 6.83578 11.5634 6.92428 11.4059 7.08181L11.9999 7.67578ZM14.4941 11.358C14.8222 11.686 15.354 11.686 15.6821 11.358C16.0101 11.0299 16.0101 10.4981 15.6821 10.17L15.0881 10.764L14.4941 11.358ZM8.31765 10.17C7.98961 10.4981 7.98961 11.0299 8.31765 11.358C8.64569 11.686 9.17755 11.686 9.50559 11.358L8.91162 10.764L8.31765 10.17ZM11.1599 16.3228C11.1599 16.7868 11.5359 17.1628 11.9999 17.1628C12.4638 17.1628 12.8399 16.7868 12.8399 16.3228H11.9999H11.1599ZM11.9999 7.67578L11.4059 8.26975L14.4941 11.358L15.0881 10.764L15.6821 10.17L12.5938 7.08181L11.9999 7.67578ZM11.9999 7.67578L11.4059 7.08181L8.31765 10.17L8.91162 10.764L9.50559 11.358L12.5938 8.26975L11.9999 7.67578ZM11.9999 7.67578H11.1599V11.9993H11.9999H12.8399V7.67578H11.9999ZM11.9999 11.9993H11.1599V16.3228H11.9999H12.8399V11.9993H11.9999Z" fill="white"/>
<defs>
<linearGradient id="paint0_linear_63431_31847" x1="3.43421" y1="3.1579" x2="15.7763" y2="22.5" gradientUnits="userSpaceOnUse">
<stop stop-color="#245D66"/>
<stop offset="1" stop-color="#34807C"/>
</linearGradient>
</defs>
</svg>
