<svg width="12" height="12" viewBox="0 0 12 12" fill="none" xmlns="http://www.w3.org/2000/svg">
<rect width="12" height="12" rx="6" fill="white"/>
<path d="M4.19976 8.154L5.99976 6.354L7.79976 8.154L8.15376 7.8L6.35376 6L8.15376 4.2L7.79976 3.846L5.99976 5.646L4.19976 3.846L3.84576 4.2L5.64576 6L3.84576 7.8L4.19976 8.154ZM6.00126 10.5C5.37926 10.5 4.79426 10.382 4.24626 10.146C3.69859 9.90967 3.22209 9.589 2.81676 9.184C2.41142 8.779 2.09059 8.303 1.85426 7.756C1.61792 7.209 1.49976 6.62417 1.49976 6.0015C1.49976 5.37883 1.61792 4.79383 1.85426 4.2465C2.09026 3.69883 2.41042 3.22233 2.81476 2.817C3.21909 2.41167 3.69526 2.09083 4.24326 1.8545C4.79126 1.61817 5.37626 1.5 5.99826 1.5C6.62026 1.5 7.20526 1.61817 7.75326 1.8545C8.30092 2.0905 8.77742 2.41083 9.18276 2.8155C9.58809 3.22017 9.90893 3.69633 10.1453 4.244C10.3816 4.79167 10.4998 5.3765 10.4998 5.9985C10.4998 6.6205 10.3818 7.2055 10.1458 7.7535C9.90976 8.3015 9.58909 8.778 9.18376 9.183C8.77842 9.588 8.30242 9.90883 7.75576 10.1455C7.20909 10.3822 6.62426 10.5003 6.00126 10.5Z" fill="#3C3C3C"/>
</svg>
