<svg width="24" height="24" viewBox="0 0 24 24" fill="none" xmlns="http://www.w3.org/2000/svg">
<path d="M12 1.84961C17.5969 1.84961 22.1504 6.40316 22.1504 12C22.1504 17.5968 17.5968 22.1504 12 22.1504C6.40316 22.1504 1.84961 17.5968 1.84961 12C1.84961 6.40316 6.40316 1.84961 12 1.84961ZM12 3.23145C7.16494 3.23145 3.23145 7.16494 3.23145 12C3.23145 13.4649 3.59278 14.8467 4.23047 16.0615C4.64913 16.8592 5.1869 17.585 5.82031 18.2148C7.40692 19.7925 9.5916 20.7686 12 20.7686C16.8351 20.7686 20.7686 16.8351 20.7686 12C20.7686 10.6473 20.4604 9.3657 19.9111 8.2207C19.4284 7.21439 18.7592 6.31344 17.9482 5.56348C16.3838 4.11676 14.2933 3.23145 12 3.23145Z" fill="#3C3C3C" stroke="white" stroke-width="0.3"/>
<path d="M8.7334 8.73926C9.30284 8.73926 9.76463 9.20107 9.76465 9.77051C9.76465 10.34 9.30286 10.8018 8.7334 10.8018C8.16396 10.8017 7.70215 10.34 7.70215 9.77051C7.70217 9.20108 8.16397 8.73928 8.7334 8.73926Z" fill="#3C3C3C" stroke="white" stroke-width="0.1"/>
<path d="M15.4229 8.73926C15.9923 8.73926 16.4541 9.20107 16.4541 9.77051C16.4541 10.34 15.9923 10.8018 15.4229 10.8018C14.8534 10.8017 14.3916 10.34 14.3916 9.77051C14.3916 9.20108 14.8534 8.73928 15.4229 8.73926Z" fill="#3C3C3C" stroke="white" stroke-width="0.1"/>
<path d="M17.1533 14.71C16.0107 16.4462 14.0387 17.4912 11.9805 17.4912C11.7497 17.4912 11.518 17.4789 11.2861 17.4521C9.49588 17.2456 7.84013 16.2211 6.8457 14.71L7.66895 14.1777C8.50596 15.4454 9.89575 16.3042 11.3984 16.4775C13.3311 16.7005 15.2592 15.7974 16.3291 14.1768L17.1533 14.71Z" fill="#3C3C3C" stroke="white" stroke-width="0.1"/>
</svg>
